<svg width="314" height="85" viewBox="0 0 314 85" fill="none" xmlns="http://www.w3.org/2000/svg">
<path d="M307.302 27.4C307.202 37.2 307.202 47 307.302 56.8C307.302 59.3 308.202 61.2 311.102 61.8C312.902 62.1 313.802 63.5 313.902 65.4C313.902 67.5 313.902 69.7 313.902 71.8C313.902 79.8 308.702 85 300.802 85C295.002 85 289.302 85 283.502 85H30.4016C24.6016 85 18.9016 85 13.1016 85C5.10157 85 0.00156682 79.8 0.00156682 71.8C0.00156682 69.7 0.00156682 67.5 0.00156682 65.4C0.00156682 63.5 0.901567 62.1 2.80157 61.8C5.70157 61.3 6.60157 59.3 6.60157 56.8C6.70157 47 6.70157 37.2 6.60157 27.4C6.60157 25 5.70157 23.1 2.90157 22.6C1.10157 22.3 0.101567 20.9 0.101567 19C0.101567 17.4 0.00156682 16 0.00156682 14.4V10.4C-0.0984332 4.7 4.60157 0 10.3016 0H303.502C309.202 0 313.902 4.7 313.902 10.4V14.4C313.902 16 313.802 17.4 313.802 19C313.802 20.9 312.802 22.2 311.002 22.6C308.202 23.1 307.302 25 307.302 27.4Z" fill="url(#paint0_linear_1370_989)"/>
<defs>
<linearGradient id="paint0_linear_1370_989" x1="-24.5" y1="-18.5" x2="270.5" y2="98" gradientUnits="userSpaceOnUse">
<stop stop-color="#E5C655"/>
<stop offset="1" stop-color="#F08921"/>
</linearGradient>
</defs>
</svg>
