<svg width="50" height="50" viewBox="0 0 50 50" fill="none" xmlns="http://www.w3.org/2000/svg">
<g id="icon">
<g id="Ellipse 65" filter="url(#filter0_ii_1369_977)">
<circle cx="25" cy="25" r="25" fill="url(#paint0_linear_1369_977)"/>
</g>
<path id="Vector" fill-rule="evenodd" clip-rule="evenodd" d="M24.9639 12.204C31.9919 12.175 37.9239 17.959 37.8049 24.958C37.6779 32.432 32.0829 37.783 25.1169 37.797C17.4939 37.812 12.2569 31.892 12.1949 25.087C12.1299 18.004 17.8729 12.232 24.9639 12.204ZM36.3999 30.137C32.1459 31.063 28.3339 30.714 25.6439 26.711C26.6479 31.26 24.8239 34.428 21.0049 36.698C26.6049 35.568 31.8709 33.732 36.3999 30.137ZM30.0709 13.584C30.9589 17.763 30.7569 21.593 26.7989 24.322C31.2889 23.406 34.4139 25.184 36.6099 28.972C35.3129 23.451 33.2989 18.267 30.0709 13.584ZM13.3589 21.02C14.5719 26.519 16.9229 31.504 19.8629 36.259C18.9679 32.097 19.3529 28.366 23.2179 25.697C18.7259 26.619 15.5759 24.83 13.3589 21.02ZM13.7789 19.861C17.9819 19.005 21.7589 19.359 24.3789 23.377C23.3679 18.979 25.0009 15.784 28.7349 13.497C23.4579 14.968 18.4809 17.073 13.7789 19.861Z" fill="url(#paint1_linear_1369_977)"/>
</g>
<defs>
<filter id="filter0_ii_1369_977" x="-0.5" y="-0.5" width="51" height="51" filterUnits="userSpaceOnUse" color-interpolation-filters="sRGB">
<feFlood flood-opacity="0" result="BackgroundImageFix"/>
<feBlend mode="normal" in="SourceGraphic" in2="BackgroundImageFix" result="shape"/>
<feColorMatrix in="SourceAlpha" type="matrix" values="0 0 0 0 0 0 0 0 0 0 0 0 0 0 0 0 0 0 127 0" result="hardAlpha"/>
<feOffset dx="0.5" dy="0.5"/>
<feGaussianBlur stdDeviation="0.5"/>
<feComposite in2="hardAlpha" operator="arithmetic" k2="-1" k3="1"/>
<feColorMatrix type="matrix" values="0 0 0 0 0.8375 0 0 0 0 0.469349 0 0 0 0 0.101198 0 0 0 1 0"/>
<feBlend mode="normal" in2="shape" result="effect1_innerShadow_1369_977"/>
<feColorMatrix in="SourceAlpha" type="matrix" values="0 0 0 0 0 0 0 0 0 0 0 0 0 0 0 0 0 0 127 0" result="hardAlpha"/>
<feOffset dx="-0.5" dy="-0.5"/>
<feGaussianBlur stdDeviation="0.5"/>
<feComposite in2="hardAlpha" operator="arithmetic" k2="-1" k3="1"/>
<feColorMatrix type="matrix" values="0 0 0 0 1 0 0 0 0 0.623529 0 0 0 0 0.188235 0 0 0 1 0"/>
<feBlend mode="normal" in2="effect1_innerShadow_1369_977" result="effect2_innerShadow_1369_977"/>
</filter>
<linearGradient id="paint0_linear_1369_977" x1="10.5" y1="5" x2="38.5" y2="47.5" gradientUnits="userSpaceOnUse">
<stop stop-color="#EFB448"/>
<stop offset="1" stop-color="#E1821B"/>
</linearGradient>
<linearGradient id="paint1_linear_1369_977" x1="38" y1="38" x2="12.212" y2="12.1862" gradientUnits="userSpaceOnUse">
<stop stop-color="#FCDA91"/>
<stop offset="1" stop-color="white" stop-opacity="0.99608"/>
</linearGradient>
</defs>
</svg>
