<svg width="70" height="70" viewBox="0 0 70 70" fill="none" xmlns="http://www.w3.org/2000/svg">
<g id="icon ru">
<ellipse id="Ellipse 66" cx="35" cy="35" rx="35" ry="35" fill="#FF0000"/>
<g id="Vector">
<path d="M20.0194 30.2167C21.0326 30.8274 22.0107 31.4205 22.9946 32.0137C26.655 34.2294 30.3214 36.4509 33.9818 38.6666C34.6729 39.0853 35.3582 39.0737 36.0493 38.655C39.2002 36.7417 42.357 34.8342 45.5137 32.9209C46.9369 32.0602 48.3601 31.1996 49.7833 30.3389C49.8419 30.304 49.8946 30.2749 50 30.2167C50 30.3563 50 30.4552 50 30.5599C50 34.1945 50 37.8292 50 41.4697C50 44.0575 48.0907 45.9883 45.4903 45.9941C41.2852 46.0057 37.0742 45.9941 32.869 45.9941C30.1867 45.9941 27.4984 45.9883 24.816 45.9999C23.6564 46.0057 22.5905 45.7673 21.6768 45.0287C20.6402 44.1913 20.0311 43.1154 20.0194 41.807C19.9842 37.9804 20.0076 34.148 20.0076 30.3156C20.0018 30.2982 20.0076 30.2807 20.0194 30.2167Z" fill="white"/>
<path d="M20.1365 27.4602C20.4469 25.7505 22.1219 24.1629 23.8321 24.0698C25.4076 23.9826 26.9947 24.0059 28.5702 24.0059C34.1282 24 39.6804 24.0117 45.2326 24C47.0658 23.9942 48.4831 24.6979 49.4143 26.2855C49.6193 26.6403 49.7423 27.0415 49.9121 27.4253C48.9341 28.0185 48.0028 28.5826 47.0716 29.1525C43.1476 31.5369 39.2177 33.9154 35.2937 36.3055C35.0712 36.4451 34.913 36.4393 34.6963 36.3055C30.6845 33.8631 26.6668 31.4264 22.649 28.9839C21.8057 28.4721 20.9682 27.9662 20.1365 27.4602Z" fill="white"/>
</g>
</g>
</svg>
