<svg width="80" height="80" viewBox="0 0 80 80" fill="none" xmlns="http://www.w3.org/2000/svg">
<g id="icon ru">
<ellipse id="Ellipse 66" cx="40" cy="40" rx="40" ry="40" fill="#FF0000"/>
<path id="Vector" d="M35.2699 22.5117C35.7623 22.7233 36.2547 22.935 36.7471 23.1396C36.9934 23.2031 37.2185 23.0832 37.4506 23.0549C37.7109 23.0197 37.9641 22.9914 38.2244 22.9562C38.4636 22.9421 38.6957 22.9209 38.9349 22.9068C39.0052 22.8997 39.0826 22.8927 39.153 22.8856C39.7298 22.8856 40.3066 22.8856 40.8835 22.8856C40.982 22.8927 41.0805 22.8997 41.1789 22.9068C41.4111 22.9279 41.6503 22.9491 41.8824 22.9703C42.1427 22.9985 42.3959 23.0267 42.6562 23.0549C42.8813 23.1467 43.1205 23.1537 43.3597 23.189C43.5918 23.2384 43.831 23.2878 44.0631 23.3371C44.5766 23.4924 45.0972 23.6546 45.6107 23.8098C45.8429 23.8945 46.075 23.9721 46.3072 24.0568C46.7996 24.2825 47.292 24.5153 47.7915 24.7411C48.2839 25.0233 48.7763 25.3055 49.2687 25.5948C49.5009 25.757 49.74 25.9264 49.9722 26.0886C50.2887 26.3426 50.6123 26.5966 50.9289 26.8576C52.0615 27.8101 53.0393 28.9036 53.9186 30.0889C54.3899 30.8014 54.8331 31.5352 55.2411 32.2901C55.3607 32.544 55.4803 32.8051 55.5999 33.0591C55.7828 33.5317 55.9727 34.0044 56.1556 34.4701C56.2048 34.7311 56.2822 34.9922 56.3877 35.2391C56.5073 35.7329 56.6199 36.2268 56.7395 36.7206C56.7676 36.9817 56.7817 37.2427 56.8731 37.4967C56.8591 37.7366 56.9083 37.9694 56.9575 38.2022C56.9505 38.4633 56.9364 38.7243 57.0209 38.9783C57.0279 39.2111 57.0279 39.451 57.0349 39.6838C57.0349 39.9166 57.0349 40.1565 57.0349 40.3893C57.0279 40.5304 57.0279 40.6715 57.0209 40.8126C56.9013 41.1583 56.9857 41.5252 56.9153 41.8709C56.8802 42.1249 56.852 42.3859 56.8168 42.6399C56.6902 42.908 56.7606 43.1337 56.9435 43.3454C57.1545 43.8604 57.3655 44.3754 57.5766 44.8975C57.6962 45.5325 57.872 46.1604 57.9424 46.8094C58.0479 47.8606 58.0127 48.8977 57.8017 49.9348C57.7947 49.9701 57.8017 50.0054 57.8017 50.0407C57.7384 50.2735 57.6821 50.5063 57.6188 50.7391C57.4359 51.233 57.253 51.7198 57.0701 52.2136C56.9364 52.4747 56.7957 52.7357 56.6621 52.9897C56.5214 53.2013 56.3807 53.413 56.247 53.6317C55.5295 54.6124 54.6854 55.459 53.7146 56.1856C53.4754 56.3409 53.2433 56.4961 53.0041 56.6583C52.7509 56.7853 52.4906 56.9123 52.2373 57.0393C51.7168 57.2369 51.1962 57.4415 50.6827 57.639C49.8315 57.8295 48.9733 57.9847 48.0939 57.9988C47.2639 58.0129 46.4408 57.9 45.6318 57.7307C45.3716 57.6602 45.1183 57.5896 44.858 57.5191C44.3867 57.3286 43.9224 57.1381 43.4511 56.9476C43.219 56.7783 42.9798 56.6372 42.6773 56.7501C42.4241 56.8065 42.1497 56.7712 41.9035 56.877C41.601 56.8982 41.2915 56.8488 40.989 56.9476C40.7991 56.9547 40.6162 56.9547 40.4262 56.9617C40.1941 56.9617 39.9549 56.9617 39.7228 56.9617C39.4625 56.9617 39.2093 56.9547 38.949 56.9547C38.7168 56.8912 38.4847 56.87 38.2455 56.8912C38.0204 56.8277 37.7812 56.7994 37.5491 56.8065C37.2958 56.7289 37.0356 56.6795 36.7682 56.6725C36.2758 56.5525 35.7834 56.4326 35.291 56.3197C35.0307 56.235 34.7775 56.1433 34.5172 56.0587C34.0248 55.8682 33.5323 55.6706 33.0399 55.4801C32.5475 55.2262 32.0551 54.9722 31.5626 54.7182C31.0702 54.4078 30.5778 54.0903 30.0854 53.7799C30.0572 53.7587 30.0291 53.7375 30.001 53.7164C29.797 53.5541 29.593 53.3989 29.389 53.2366C29.2905 53.159 29.199 53.0814 29.1005 53.0038C28.9669 52.8274 28.791 52.7075 28.6152 52.5805C28.0313 51.9667 27.4474 51.36 26.8635 50.7462C26.7439 50.5416 26.5962 50.3652 26.4344 50.1959C26.3922 50.1465 26.35 50.09 26.3078 50.0407C25.9912 49.5468 25.6747 49.06 25.3511 48.5662C25.2174 48.3333 25.0838 48.1005 24.9501 47.8677C24.9361 47.8395 24.915 47.8113 24.9009 47.776C24.7813 47.522 24.6547 47.268 24.5351 47.014C24.3452 46.5413 24.1552 46.0757 23.9653 45.603C23.8035 45.088 23.6417 44.5659 23.4869 44.0509C23.4729 43.811 23.4166 43.5782 23.3322 43.3454C23.3181 43.1055 23.2829 42.8656 23.1985 42.6399C23.1704 42.3788 23.1422 42.1249 23.1141 41.8638C23.093 41.631 23.0719 41.3911 23.0508 41.1583C23.0438 40.8973 23.0649 40.6362 22.9875 40.3822C22.9875 40.1494 22.9875 39.9166 22.9875 39.6767C22.9875 39.6062 22.9945 39.5356 22.9945 39.4651C23.1071 38.9994 23.0226 38.5268 23.1141 38.0611C23.1422 37.8495 23.1633 37.6378 23.1915 37.4262C23.2196 37.1863 23.3392 36.9323 23.1211 36.7206C22.9101 36.2268 22.7061 35.7329 22.4951 35.2461C22.1363 34.0327 21.9393 32.791 22.0167 31.521C22.0448 31.0695 22.1081 30.618 22.1504 30.1665C22.2699 29.8984 22.3122 29.6091 22.3544 29.3269C22.4528 29.1011 22.5373 28.8754 22.5724 28.6285C22.8046 28.1346 23.0367 27.6407 23.2689 27.1398C23.7542 26.3356 24.324 25.5877 24.9712 24.9034C25.6395 24.2896 26.3641 23.7393 27.1379 23.2666C27.567 23.062 27.9961 22.8503 28.4182 22.6457C28.4885 22.6457 28.5659 22.6457 28.6152 22.5752C28.8684 22.4976 29.1287 22.42 29.3819 22.3494C31.0843 21.8838 32.8007 21.905 34.5172 22.2859C34.7564 22.3635 35.0166 22.4341 35.2699 22.5117ZM40.4684 50.344C40.9187 50.3581 41.805 50.2735 42.6843 50.1183C43.9857 49.8855 45.2168 49.4551 46.2931 48.6579C47.6015 47.6843 48.3683 46.3932 48.5793 44.7705C48.7693 43.2819 48.5793 41.8638 47.7211 40.601C46.9614 39.4792 45.8569 38.8019 44.6048 38.3645C42.9868 37.8001 41.2915 37.5602 39.6384 37.1581C38.7098 36.9323 37.7601 36.77 36.9089 36.2832C35.9804 35.7541 35.706 34.8299 36.1773 33.8704C36.522 33.1649 37.134 32.798 37.8586 32.5864C38.7379 32.3253 39.6384 32.3253 40.5388 32.4594C41.6925 32.6287 42.6703 33.1226 43.4441 34.0115C43.7044 34.3149 43.9857 34.5971 44.2742 34.8722C45.0128 35.5777 46.1454 35.6412 47.0247 35.0486C47.7915 34.5336 48.0166 33.6305 47.6226 32.6357C47.2568 31.7115 46.5745 31.0484 45.7585 30.5474C42.7336 28.6778 39.4906 28.3745 36.107 29.3199C34.7634 29.6938 33.5745 30.3499 32.653 31.4364C31.5415 32.7486 31.2672 34.3008 31.436 35.9516C31.5908 37.4473 32.2872 38.6326 33.5464 39.4792C34.271 39.966 35.0659 40.3258 35.903 40.5445C37.7672 41.0313 39.6384 41.4899 41.5025 41.9626C42.0442 42.0966 42.5929 42.2307 43.0572 42.5764C43.7325 43.0773 44.0139 43.7405 43.8591 44.573C43.6833 45.4972 43.0924 46.0828 42.2834 46.4708C41.3478 46.9153 40.3629 46.9929 39.3359 46.9082C37.8586 46.7883 36.6768 46.1745 35.7764 44.9892C35.4387 44.5447 35.101 44.0862 34.6719 43.7122C33.5112 42.7104 31.6822 43.2748 31.3657 44.7493C31.232 45.3702 31.3797 45.9628 31.6471 46.5272C32.2169 47.7407 33.1876 48.545 34.3483 49.1447C36.1351 50.0477 38.0556 50.3229 40.4684 50.344Z" fill="white"/>
</g>
</svg>
