<svg width="80" height="80" viewBox="0 0 80 80" fill="none" xmlns="http://www.w3.org/2000/svg">
<g id="icon ru">
<ellipse id="Ellipse 66" cx="40" cy="40" rx="40" ry="40" fill="#FF0000"/>
<g id="Group 385">
<path id="Vector" d="M36.2845 44.4141L35.6218 51.2725C35.6218 51.2725 35.3453 53.3746 37.5054 51.2725C39.6707 49.1704 41.7421 47.5495 41.7421 47.5495L36.2845 44.4141Z" fill="white"/>
<path id="Vector_2" d="M31.7546 42.3625L24.6326 40.1084C24.6326 40.1084 23.7821 39.7741 24.0534 39.0143C24.1108 38.8573 24.2256 38.7256 24.5647 38.4926C26.1405 37.4238 53.7782 27.7794 53.7782 27.7794C53.7782 27.7794 54.5608 27.5261 55.0199 27.6933C55.2287 27.7693 55.3643 27.8605 55.4791 28.1796C55.5208 28.2961 55.5417 28.5443 55.5417 28.7874C55.5417 28.9647 55.5156 29.1318 55.5 29.3902C55.333 32.0241 50.298 51.7029 50.298 51.7029C50.298 51.7029 49.9954 52.8527 48.9153 52.8933C48.524 52.9085 48.044 52.8325 47.4701 52.3513C45.3517 50.5835 38.0262 45.8018 36.4087 44.7533C36.32 44.6925 36.2939 44.6165 36.2783 44.5406C36.2574 44.4291 36.3774 44.2924 36.3774 44.2924C36.3774 44.2924 49.1293 33.2854 49.4684 32.1356C49.4945 32.0444 49.3954 32.0039 49.2597 32.0393C48.4145 32.3433 33.7321 41.3443 32.1094 42.3371C32.0207 42.3979 31.7546 42.3625 31.7546 42.3625Z" fill="white"/>
</g>
</g>
</svg>
