<svg width="70" height="70" viewBox="0 0 70 70" fill="none" xmlns="http://www.w3.org/2000/svg">
<g id="icon ru">
<ellipse id="Ellipse 66" cx="35" cy="35" rx="35" ry="35" fill="#FF0000"/>
<g id="Group 385">
<path id="Vector" d="M31.749 38.8623L31.1692 44.8634C31.1692 44.8634 30.9273 46.7028 32.8173 44.8634C34.712 43.0241 36.5245 41.6058 36.5245 41.6058L31.749 38.8623Z" fill="white"/>
<path id="Vector_2" d="M27.7853 37.0671L21.5535 35.0948C21.5535 35.0948 20.8093 34.8023 21.0467 34.1374C21.097 34 21.1974 33.8848 21.4942 33.6809C22.8729 32.7457 47.0559 24.3069 47.0559 24.3069C47.0559 24.3069 47.7407 24.0853 48.1425 24.2316C48.3251 24.2981 48.4438 24.3778 48.5442 24.6571C48.5807 24.759 48.599 24.9762 48.599 25.1889C48.599 25.344 48.5762 25.4903 48.5625 25.7163C48.4164 28.0211 44.0108 45.24 44.0108 45.24C44.0108 45.24 43.746 46.2461 42.8009 46.2816C42.4585 46.2948 42.0385 46.2284 41.5363 45.8073C39.6827 44.2605 33.2729 40.0765 31.8576 39.1591C31.78 39.1059 31.7572 39.0394 31.7435 38.9729C31.7252 38.8754 31.8302 38.7557 31.8302 38.7557C31.8302 38.7557 42.9881 29.1247 43.2849 28.1186C43.3077 28.0388 43.2209 28.0033 43.1022 28.0344C42.3626 28.3003 29.5156 36.1762 28.0957 37.0449C28.0181 37.0981 27.7853 37.0671 27.7853 37.0671Z" fill="white"/>
</g>
</g>
</svg>
