<svg width="80" height="81" viewBox="0 0 80 81" fill="none" xmlns="http://www.w3.org/2000/svg">
<g id="icon ru">
<ellipse id="Ellipse 66" cx="40" cy="40.0908" rx="40" ry="40" fill="#FF0000"/>
<path id="Vector" d="M59.3443 30.9138C58.8545 30.5076 56.9709 30.5287 55.1033 30.534C53.1927 30.5445 51.2983 30.5551 50.8624 30.7239C50.4587 30.8821 49.5438 33.0396 48.3598 35.2604C47.0197 37.7766 45.3566 40.1925 44.3125 40.1767C42.9563 40.1556 43.2685 36.0253 43.3492 32.9921C43.403 30.9824 43.0693 30.3546 42.7679 30.1542C42.0414 29.6794 40.0716 29.21 40.0716 29.21C40.0716 29.21 34.1622 28.7774 33.3173 31.2936C34.4421 31.436 36.3796 31.0879 35.6315 38.8527C35.5938 39.2272 34.7273 42.4291 31.9664 38.0983C31.2829 37.0275 28.635 30.5604 27.7254 30.534C24.6631 30.4549 21.6654 30.3283 20.589 30.9138C19.6095 31.4466 21.9129 35.9145 25.7933 41.8805C28.9687 46.7546 32.3324 50.5631 38.1341 51.5232C39.2159 51.6287 42.0737 51.7553 42.9563 51.3333C43.5698 51.0379 42.8218 46.8126 44.883 46.417C45.8087 46.2429 49.3285 50.8058 50.6686 51.3333C51.4813 51.6498 53.2681 51.7711 55.1033 51.7131C57.0839 51.6498 59.3228 51.8819 59.538 50.579C60.0224 47.6619 53.5641 43.8744 53.3703 42.0704C53.2304 40.778 55.733 38.399 57.0354 36.5897C58.6177 34.3847 60.3346 31.7314 59.3443 30.9138Z" fill="white"/>
</g>
</svg>
